<?xml version="1.0" encoding="UTF-8"?>
<svg xmlns="http://www.w3.org/2000/svg" viewBox="0 0 10001 10001">
  <defs>
    <style>
      .cls-1 {
        fill: #033328;
      }

      .cls-1, .cls-2 {
        stroke: #231f20;
        stroke-miterlimit: 10;
      }

      .cls-2 {
        fill: #e3dcd2;
      }
    </style>
  </defs>
  <g id="Layer_3" data-name="Layer 3">
    <rect class="cls-2" x=".5" y=".5" width="10000" height="10000"/>
  </g>
  <g id="Layer_2" data-name="Layer 2">
    <g>
      <path class="cls-1" d="M3486.76,5140.52c161.75-35.94,2181.99-2095.75,2187.02-2114.5,5.5,9.33,300.91,515.78-63.34,939.7-407.83,474.62-1852.11,1813.33-1816.42,1807.39,0,0-207.85,253.03-9.04,442.81,198.81,189.78,424.74,54.22,497.03,0,72.3-54.22,1807.47-1798.22,1807.47-1798.22,227.88-171.35,460.9-248.62,704.79-126.64l506.07-497.03c-292.38-199.36-594.06-252.64-903.69-180.74,108.44-497.03-253.03-1048.28-253.03-1048.28,175.75-198.68,361.48-352.44,469.92-506.07,0,0,234.96-397.63-189.78-713.92,0,0-3029.3,3042.77-3117.74,3117.74-88.44,74.97-370.51,406.66-985.03,144.59-63.31-27,1915.83-1924.87,1915.83-1924.87,188.55-191.68,436.2-279.49,789.98-180.74l484.22-497.03s-487.99-361.48-1201.91-108.44c-713.92,253.03-2964.11,2738.19-2964.11,2738.19,0,0,894.66,1201.91,2141.75,506.07Z"/>
      <path class="cls-1" d="M8655.89,3595.2s-280.15-487.99-795.25-90.37c-515.1,397.62-3244.26,3226.18-3244.26,3226.18-26.92,15.98-611.7,559.73-1219.99-18.07-693.11-594.44-221.22-1219.44-213.72-1227.42-284.83,73.63-523.5,80.81-734.18,47.67,0,0-353.67,909.24,495.8,1659.31,849.47,750.07,1816.92,335.54,2082.52,44.58,294.45-253.03,2457.48-2392.46,2436.2-2412.86,0,0,318.35,501.57-99.41,966.95-423.67,471.96-1960.11,1913.87-1942.49,1923.89-127.46-83.6-139.23-418.94-138.8-475.86,0,0-340.61,332.25-566.53,413.58-78.48,7.7,225.92,759.1,686.81,1003.1,80.68,19.94,2584.5-2639.82,2540.18-2592.79s644.33-863.85-9.84-1717.82c-99.41,72.3,733.99-695.84,722.96-750.07Z"/>
    </g>
  </g>
</svg>